<?xml version="1.0" encoding="UTF-8" standalone="no"?>
<!-- Created with Inkscape (http://www.inkscape.org/) -->

<svg
   xmlns:dc="http://purl.org/dc/elements/1.1/"
   xmlns:cc="http://creativecommons.org/ns#"
   xmlns:rdf="http://www.w3.org/1999/02/22-rdf-syntax-ns#"
   xmlns:svg="http://www.w3.org/2000/svg"
   xmlns="http://www.w3.org/2000/svg"
   xmlns:xlink="http://www.w3.org/1999/xlink"
   xmlns:sodipodi="http://sodipodi.sourceforge.net/DTD/sodipodi-0.dtd"
   xmlns:inkscape="http://www.inkscape.org/namespaces/inkscape"
   width="12in"
   height="9.5in"
   viewBox="0 0 304.8 241.3"
   version="1.1"
   id="svg8"
   inkscape:version="0.92.5 (2060ec1f9f, 2020-04-08)"
   sodipodi:docname="cover.svg"
   inkscape:export-filename="/home/dfitch/git/2020-chapbook/cover.png"
   inkscape:export-xdpi="300"
   inkscape:export-ydpi="300">
  <defs
     id="defs2">
    <linearGradient
       inkscape:collect="always"
       id="linearGradient1104">
      <stop
         style="stop-color:#f9f9f9;stop-opacity:1;"
         offset="0"
         id="stop1100" />
      <stop
         style="stop-color:#f9f9f9;stop-opacity:0;"
         offset="1"
         id="stop1102" />
    </linearGradient>
    <linearGradient
       inkscape:collect="always"
       id="linearGradient1040">
      <stop
         style="stop-color:#ffffff;stop-opacity:1;"
         offset="0"
         id="stop1036" />
      <stop
         id="stop1046"
         offset="0.44927529"
         style="stop-color:#ffffff;stop-opacity:1" />
      <stop
         id="stop1044"
         offset="0.47101441"
         style="stop-color:#000000;stop-opacity:1" />
      <stop
         style="stop-color:#000000;stop-opacity:1"
         offset="1"
         id="stop1038" />
    </linearGradient>
    <linearGradient
       inkscape:collect="always"
       xlink:href="#linearGradient1040"
       id="linearGradient1042"
       x1="186.55412"
       y1="87.995232"
       x2="186.55412"
       y2="106.43683"
       gradientUnits="userSpaceOnUse" />
    <linearGradient
       inkscape:collect="always"
       xlink:href="#linearGradient1104"
       id="linearGradient1106"
       x1="169.45867"
       y1="114.60354"
       x2="280.16598"
       y2="114.60354"
       gradientUnits="userSpaceOnUse" />
  </defs>
  <sodipodi:namedview
     id="base"
     pagecolor="#ffffff"
     bordercolor="#666666"
     borderopacity="1.0"
     inkscape:pageopacity="1"
     inkscape:pageshadow="2"
     inkscape:zoom="1.979899"
     inkscape:cx="859.67689"
     inkscape:cy="654.85692"
     inkscape:document-units="mm"
     inkscape:current-layer="layer3"
     showgrid="false"
     units="in"
     inkscape:window-width="3840"
     inkscape:window-height="2134"
     inkscape:window-x="0"
     inkscape:window-y="0"
     inkscape:window-maximized="1"
     showguides="true"
     inkscape:guide-bbox="true"
     inkscape:snap-object-midpoints="true"
     inkscape:snap-bbox="false"
     inkscape:snap-center="true"
     inkscape:snap-page="true"
     inkscape:snap-global="false">
    <sodipodi:guide
       position="139.7,160.89626"
       orientation="1,0"
       id="guide834"
       inkscape:locked="false"
       inkscape:label=""
       inkscape:color="rgb(0,0,255)" />
    <sodipodi:guide
       position="209.55,231.45541"
       orientation="1,0"
       id="guide836"
       inkscape:locked="false"
       inkscape:label=""
       inkscape:color="rgb(0,0,255)" />
    <sodipodi:guide
       position="69.85,168.3798"
       orientation="1,0"
       id="guide838"
       inkscape:locked="false"
       inkscape:label=""
       inkscape:color="rgb(0,0,255)" />
  </sodipodi:namedview>
  <metadata
     id="metadata5">
    <rdf:RDF>
      <cc:Work
         rdf:about="">
        <dc:format>image/svg+xml</dc:format>
        <dc:type
           rdf:resource="http://purl.org/dc/dcmitype/StillImage" />
        <dc:title />
      </cc:Work>
    </rdf:RDF>
  </metadata>
  <g
     inkscape:groupmode="layer"
     id="layer3"
     inkscape:label="BG">
    <image
       sodipodi:absref="/home/dfitch/git/2020-chapbook/jar1.jpg"
       xlink:href="jar1.jpg"
       y="18.376431"
       x="156.12421"
       id="image1070"
       style="image-rendering:optimizeQuality"
       preserveAspectRatio="none"
       height="210.19434"
       width="136.02174" />
    <image
       sodipodi:absref="/home/dfitch/git/2020-chapbook/jar1.jpg"
       xlink:href="jar1.jpg"
       transform="scale(-1,1)"
       width="136.02174"
       height="210.19434"
       preserveAspectRatio="none"
       style="image-rendering:optimizeQuality"
       id="image859"
       x="-156.14508"
       y="18.405663" />
    <ellipse
       style="fill:#fafafa;fill-opacity:1;stroke:none;stroke-width:0.75;stroke-miterlimit:4;stroke-dasharray:none;stroke-opacity:1;paint-order:stroke markers fill"
       id="path1185"
       cx="264.40329"
       cy="40.983009"
       rx="0.043848906"
       ry="0.13154672"
       transform="rotate(5.3145458)" />
    <ellipse
       transform="matrix(0.92267453,-0.3855797,0.38025684,0.92488093,0,0)"
       ry="0.10679054"
       rx="0.035392527"
       cy="160.62415"
       cx="215.02321"
       id="ellipse1187"
       style="fill:#fafafa;fill-opacity:1;stroke:none;stroke-width:0.60710531;stroke-miterlimit:4;stroke-dasharray:none;stroke-opacity:1;paint-order:stroke markers fill" />
    <ellipse
       style="fill:#fafafa;fill-opacity:1;stroke:none;stroke-width:0.60710531;stroke-miterlimit:4;stroke-dasharray:none;stroke-opacity:1;paint-order:stroke markers fill"
       id="ellipse1189"
       cx="108.54222"
       cy="245.51933"
       rx="0.035392527"
       ry="0.10679054"
       transform="matrix(0.61310591,-0.79000072,0.78645488,0.61764773,0,0)" />
    <ellipse
       transform="matrix(-0.06760178,-0.99771238,0.99790356,-0.06471858,0,0)"
       ry="0.098432548"
       rx="0.033333469"
       cy="254.83438"
       cx="-82.663254"
       id="ellipse1191"
       style="fill:#fafafa;fill-opacity:1;stroke:none;stroke-width:0.56565481;stroke-miterlimit:4;stroke-dasharray:none;stroke-opacity:1;paint-order:stroke markers fill" />
    <ellipse
       style="fill:#fafafa;fill-opacity:1;stroke:none;stroke-width:0.48279446;stroke-miterlimit:4;stroke-dasharray:none;stroke-opacity:1;paint-order:stroke markers fill"
       id="ellipse1193"
       cx="-106.68793"
       cy="244.61421"
       rx="0.027179655"
       ry="0.087942116"
       transform="matrix(-0.17471868,-0.98461839,0.98714323,-0.15983816,0,0)" />
    <ellipse
       transform="matrix(-0.35354055,-0.9354192,0.94064856,-0.33938221,0,0)"
       ry="0.069718286"
       rx="0.021547344"
       cy="220.23235"
       cx="-150.35304"
       id="ellipse1195"
       style="fill:#fafafa;fill-opacity:1;stroke:none;stroke-width:0.38274723;stroke-miterlimit:4;stroke-dasharray:none;stroke-opacity:1;paint-order:stroke markers fill" />
    <ellipse
       style="fill:#fafafa;fill-opacity:1;stroke:none;stroke-width:0.32183942;stroke-miterlimit:4;stroke-dasharray:none;stroke-opacity:1;paint-order:stroke markers fill"
       id="ellipse1197"
       cx="-193.26895"
       cy="165.4877"
       rx="0.017776564"
       ry="0.059751254"
       transform="matrix(-0.61704194,-0.78693026,0.85337689,-0.52129444,0,0)" />
    <ellipse
       transform="matrix(-0.57016048,-0.82153334,0.8230192,-0.56801355,0,0)"
       ry="0.046453267"
       rx="0.014424598"
       cy="176.60677"
       cx="-202.12936"
       id="ellipse1199"
       style="fill:#fafafa;fill-opacity:1;stroke:none;stroke-width:0.25562412;stroke-miterlimit:4;stroke-dasharray:none;stroke-opacity:1;paint-order:stroke markers fill" />
    <ellipse
       style="fill:#fafafa;fill-opacity:1;stroke:none;stroke-width:0.1873619;stroke-miterlimit:4;stroke-dasharray:none;stroke-opacity:1;paint-order:stroke markers fill"
       id="ellipse1201"
       cx="-231.03719"
       cy="133.9821"
       rx="0.010593674"
       ry="0.033980697"
       transform="matrix(-0.71897084,-0.69504024,0.70586312,-0.70834825,0,0)"
       inkscape:transform-center-x="-0.011484238"
       inkscape:transform-center-y="0.0062641296" />
  </g>
  <g
     inkscape:groupmode="layer"
     id="layer2"
     inkscape:label="Outlines"
     style="display:none"
     transform="translate(0,25.4)">
    <rect
       style="opacity:1;fill:none;fill-opacity:1;stroke:#c92121;stroke-width:1;stroke-linecap:round;stroke-linejoin:round;stroke-miterlimit:4;stroke-dasharray:1.00000003, 3.00000008;stroke-dashoffset:0;stroke-opacity:0.78061224;paint-order:markers fill stroke"
       id="rect869"
       width="269.40768"
       height="204.19391"
       x="17.696161"
       y="-6.8469515" />
    <rect
       y="-6.8469515"
       x="17.696161"
       height="204.19391"
       width="269.40768"
       id="rect871"
       style="opacity:1;fill:none;fill-opacity:1;stroke:#c92121;stroke-width:1;stroke-linecap:round;stroke-linejoin:round;stroke-miterlimit:4;stroke-dasharray:1.00000003, 3.00000008;stroke-dashoffset:0;stroke-opacity:0.78061224;paint-order:markers fill stroke" />
    <path
       style="fill:#000080;stroke:#008080;stroke-width:0.98952848;stroke-linecap:butt;stroke-linejoin:miter;stroke-miterlimit:4;stroke-dasharray:0.98952849, 3.95811394;stroke-dashoffset:0;stroke-opacity:1"
       d="M 156.10419,-5.5374986 V 195.44918"
       id="path873"
       inkscape:connector-curvature="0" />
    <rect
       style="opacity:1;fill:none;fill-opacity:1;stroke:#008080;stroke-width:1;stroke-linecap:round;stroke-linejoin:round;stroke-miterlimit:4;stroke-dasharray:3, 3;stroke-dashoffset:0;stroke-opacity:0.78061224;paint-order:markers fill stroke"
       id="rect896"
       width="279.39999"
       height="215.89999"
       x="12.700003"
       y="-12.699997" />
  </g>
  <g
     inkscape:label="Text"
     inkscape:groupmode="layer"
     id="layer1"
     transform="translate(0,-55.7)">
    <g
       aria-label="unStable"
       style="font-style:normal;font-weight:normal;font-size:22.73654556px;line-height:1;font-family:sans-serif;text-align:center;letter-spacing:0px;word-spacing:0px;text-anchor:middle;fill:#000000;fill-opacity:1;stroke:none;stroke-width:0.56841367"
       id="text842">
      <path
         d="m 169.23904,89.608577 h 3.797 v 6.616335 q 0,1.386929 1.00041,2.410074 1.02314,1.000408 2.41007,1.000408 1.38693,0 2.38734,-1.000408 1.02315,-1.023145 1.02315,-2.410074 v -6.616335 h 3.797 v 6.616335 q 0,2.978487 -2.1145,5.092988 -2.1145,2.1145 -5.09299,2.1145 -2.97848,0 -5.09298,-2.1145 -2.1145,-2.114501 -2.1145,-5.092988 z"
         style="font-style:normal;font-variant:normal;font-weight:normal;font-stretch:normal;line-height:1;font-family:Variex;-inkscape-font-specification:Variex;text-align:center;text-anchor:middle;fill:#000000;fill-opacity:1;stroke-width:0.56841367"
         id="path1075" />
      <path
         d="m 194.76794,89.608577 h 3.797 V 107.16119 L 189.0838,95.724708 v 7.139272 h -3.797 V 85.31137 l 9.48114,11.436482 z"
         style="font-style:normal;font-variant:normal;font-weight:normal;font-stretch:normal;line-height:1;font-family:Variex;-inkscape-font-specification:Variex;text-align:center;text-anchor:middle;fill:#000000;fill-opacity:1;stroke-width:0.56841367"
         id="path1077" />
      <path
         d="m 211.75776,87.130294 v 3.797003 h -0.56842 q -1.38693,0 -2.41007,1.023144 -1.00041,1.000408 -1.00041,2.387338 v 3.797003 q 0,2.978488 -2.1145,5.070248 -2.1145,2.1145 -5.09298,2.1145 h -0.56842 v -3.77427 h 0.56842 q 1.38693,0 2.38733,-1.02314 1.02315,-1.023146 1.02315,-2.387338 v -3.797003 q 0,-2.978488 2.1145,-5.092987 2.1145,-2.114498 5.09298,-2.114498 z"
         style="font-style:normal;font-variant:normal;font-weight:normal;font-stretch:normal;line-height:1;font-family:Variex;-inkscape-font-specification:Variex;text-align:center;text-anchor:middle;fill:#000000;fill-opacity:1;stroke-width:0.56841367"
         id="path1079" />
      <path
         d="m 212.98137,89.608577 h 1.88713 v -4.751938 h 3.797 v 4.751938 h 3.9789 v 3.774267 h -3.9789 v 2.842068 q 0,1.386929 1.00041,2.410074 1.02315,1.000408 2.41008,1.000408 h 0.56841 v 3.797006 h -0.56841 q -2.97849,0 -5.09299,-2.1145 -2.1145,-2.114501 -2.1145,-5.092988 v -2.842068 h -1.88713 z"
         style="font-style:normal;font-variant:normal;font-weight:normal;font-stretch:normal;line-height:1;font-family:Variex;-inkscape-font-specification:Variex;text-align:center;text-anchor:middle;fill:#000000;fill-opacity:1;stroke-width:0.56841367"
         id="path1081" />
      <path
         d="m 234.13928,89.926889 v -2.228182 h 3.797 v 17.052413 h -3.797 v -2.20545 q -1.56882,0.88673 -3.41048,0.88673 -2.97849,0 -5.09299,-2.1145 -2.09176,-2.114501 -2.09176,-5.092988 0,-2.978488 2.09176,-5.07025 2.1145,-2.114499 5.09299,-2.114499 1.84166,0 3.41048,0.886726 z m -3.41048,2.887541 q -1.3642,0 -2.38734,1.023145 -1.02314,1.023144 -1.02314,2.387337 0,1.386929 1.02314,2.410074 1.02314,1.000408 2.38734,1.000408 1.38693,0 2.38734,-1.000408 1.02314,-1.023145 1.02314,-2.410074 0,-1.364193 -1.02314,-2.387337 -1.00041,-1.023145 -2.38734,-1.023145 z"
         style="font-style:normal;font-variant:normal;font-weight:normal;font-stretch:normal;line-height:1;font-family:Variex;-inkscape-font-specification:Variex;text-align:center;text-anchor:middle;fill:#000000;fill-opacity:1;stroke-width:0.56841367"
         id="path1083" />
      <path
         d="m 244.09482,84.856639 v 5.07025 q 1.56883,-0.886726 3.41049,-0.886726 2.97848,0 5.09298,2.114499 2.1145,2.091762 2.1145,5.07025 0,2.978487 -2.1145,5.092988 -2.1145,2.1145 -5.09298,2.1145 -1.84166,0 -3.41049,-0.88673 v 2.20545 h -3.797 V 84.856639 Z m 6.82097,11.368273 q 0,-1.364193 -1.02315,-2.387337 -1.02314,-1.023145 -2.38733,-1.023145 -1.38693,0 -2.41008,1.023145 -1.00041,1.023144 -1.00041,2.387337 0,1.386929 1.00041,2.410074 1.02315,1.000408 2.41008,1.000408 1.36419,0 2.38733,-1.000408 1.02315,-1.023145 1.02315,-2.410074 z"
         style="font-style:normal;font-variant:normal;font-weight:normal;font-stretch:normal;line-height:1;font-family:Variex;-inkscape-font-specification:Variex;text-align:center;text-anchor:middle;fill:#000000;fill-opacity:1;stroke-width:0.56841367"
         id="path1085" />
      <path
         d="m 256.20919,84.856639 h 3.797 V 99.06698 h 4.7292 v 3.797 h -8.5262 z"
         style="font-style:normal;font-variant:normal;font-weight:normal;font-stretch:normal;line-height:1;font-family:Variex;-inkscape-font-specification:Variex;text-align:center;text-anchor:middle;fill:#000000;fill-opacity:1;stroke-width:0.56841367"
         id="path1087" />
      <path
         d="m 280.53161,98.45751 h -10.54976 c 0.16674,0.803358 0.56084,1.477877 1.18231,2.02356 0.63662,0.54567 1.36749,0.95025 2.15997,0.81851 h 0.56841 v 3.77427 h -0.56841 c -1.98566,0 -3.68332,-0.70484 -5.09299,-2.1145 -1.39451,-1.39451 -2.09176,-3.084594 -2.09176,-5.070253 v -1.90987 c 0,-1.985658 0.69725,-3.675742 2.09176,-5.07025 1.40967,-1.409666 3.10733,-2.114499 5.09299,-2.114499 1.98565,0 3.68331,0.704833 5.09298,2.114499 1.40967,1.394508 2.1145,3.084592 2.1145,5.07025 z m -10.34513,-3.797003 h 6.25255 c -0.27283,-0.621465 -0.68967,-1.121669 -1.25051,-1.500612 -0.56083,-0.3941 -1.1823,-0.59115 -1.86439,-0.59115 -0.6821,0 -1.30357,0.19705 -1.8644,0.59115 -0.56083,0.378943 -0.98525,0.879147 -1.27325,1.500612 z"
         style="font-style:normal;font-variant:normal;font-weight:normal;font-stretch:normal;line-height:1;font-family:Variex;-inkscape-font-specification:Variex;text-align:center;text-anchor:middle;fill:#000000;fill-opacity:1;stroke-width:0.56841367"
         id="path1089"
         inkscape:connector-curvature="0"
         sodipodi:nodetypes="cccsccsssssscsccccscc" />
    </g>
    <text
       xml:space="preserve"
       style="font-style:normal;font-variant:normal;font-weight:normal;font-stretch:normal;font-size:8.75806808px;line-height:1.25;font-family:'URW Gothic L';-inkscape-font-specification:'URW Gothic L';letter-spacing:0px;word-spacing:0px;fill:#000000;fill-opacity:1;stroke:none;stroke-width:0.2189517"
       x="41.539829"
       y="93.156296"
       id="text848"><tspan
         sodipodi:role="line"
         id="tspan846"
         x="41.539829"
         y="93.156296"
         style="font-style:normal;font-variant:normal;font-weight:normal;font-stretch:normal;font-size:8.75806141px;font-family:Tube;-inkscape-font-specification:'Tube, Normal';font-variant-ligatures:normal;font-variant-caps:normal;font-variant-numeric:normal;font-feature-settings:normal;text-align:start;writing-mode:lr-tb;text-anchor:start;stroke-width:0.2189517">Speculative Technologies</tspan></text>
    <text
       id="text854"
       y="133.93901"
       x="82.444206"
       style="font-style:normal;font-weight:normal;font-size:7.55727291px;line-height:1.25;font-family:sans-serif;text-align:center;letter-spacing:0px;word-spacing:0px;text-anchor:middle;fill:#000000;fill-opacity:1;stroke:none;stroke-width:0.18893184"
       xml:space="preserve"><tspan
         id="tspan852"
         style="font-style:normal;font-variant:normal;font-weight:normal;font-stretch:normal;font-family:Variex;-inkscape-font-specification:Variex;text-align:center;text-anchor:middle;stroke-width:0.18893184"
         y="133.93901"
         x="82.444206"
         sodipodi:role="line">Contributors</tspan></text>
    <flowRoot
       xml:space="preserve"
       id="flowRoot858"
       style="font-style:normal;font-variant:normal;font-weight:normal;font-stretch:normal;font-size:18.5308342px;line-height:1.25;font-family:sans-serif;-inkscape-font-specification:'sans-serif, Normal';font-variant-ligatures:normal;font-variant-caps:normal;font-variant-numeric:normal;font-feature-settings:normal;text-align:center;letter-spacing:0px;word-spacing:0px;writing-mode:lr-tb;text-anchor:middle;fill:#000000;fill-opacity:1;stroke:none"
       transform="matrix(0.22844807,0,0,0.22844807,-100.20598,77.757878)"><flowRegion
         id="flowRegion860"
         style="font-style:normal;font-variant:normal;font-weight:normal;font-stretch:normal;font-size:18.5308342px;line-height:50%;font-family:sans-serif;-inkscape-font-specification:'sans-serif, Normal';font-variant-ligatures:normal;font-variant-caps:normal;font-variant-numeric:normal;font-feature-settings:normal;text-align:center;writing-mode:lr-tb;text-anchor:middle"><rect
           id="rect862"
           width="495.98499"
           height="244.45689"
           x="551.54327"
           y="80.608948"
           style="font-style:normal;font-variant:normal;font-weight:normal;font-stretch:normal;font-size:18.5308342px;line-height:50%;font-family:sans-serif;-inkscape-font-specification:'sans-serif, Normal';font-variant-ligatures:normal;font-variant-caps:normal;font-variant-numeric:normal;font-feature-settings:normal;text-align:center;writing-mode:lr-tb;text-anchor:middle" /></flowRegion><flowPara
         id="flowPara874"
         style="font-style:normal;font-variant:normal;font-weight:normal;font-stretch:normal;font-size:15.44236192px;line-height:50%;font-family:'URW Gothic';-inkscape-font-specification:'URW Gothic';font-variant-ligatures:normal;font-variant-caps:normal;font-variant-numeric:normal;font-feature-settings:normal;text-align:center;writing-mode:lr;text-anchor:middle">is a group of science-fiction/fantasy/horror writers based in Madison, the capital of Wisconsin, where beer and serial killers abound, and a vast network of brain-warping minerals were deposited as the glaciers retreated... at any rate, something needs to take the blame for all this.</flowPara></flowRoot>    <flowRoot
       xml:space="preserve"
       id="flowRoot866"
       style="font-style:normal;font-variant:normal;font-weight:normal;font-stretch:normal;font-size:26.66666603px;line-height:1.25;font-family:'URW Gothic L';-inkscape-font-specification:'URW Gothic L';letter-spacing:0px;word-spacing:0px;fill:#000000;fill-opacity:1;stroke:none"><flowRegion
         id="flowRegion868"
         style="font-style:normal;font-variant:normal;font-weight:normal;font-stretch:normal;font-size:26.66666603px;font-family:'URW Gothic L';-inkscape-font-specification:'URW Gothic L'"><rect
           id="rect870"
           width="480.83261"
           height="72.73098"
           x="552.55347"
           y="81.619102"
           style="font-style:normal;font-variant:normal;font-weight:normal;font-stretch:normal;font-size:26.66666603px;font-family:'URW Gothic L';-inkscape-font-specification:'URW Gothic L'" /></flowRegion><flowPara
         id="flowPara872" /></flowRoot>    <text
       id="text892"
       y="274.73721"
       x="166.78258"
       style="font-style:normal;font-variant:normal;font-weight:normal;font-stretch:normal;font-size:12.40761471px;line-height:1.25;font-family:'URW Gothic L';-inkscape-font-specification:'URW Gothic L';letter-spacing:0px;word-spacing:0px;fill:#020713;fill-opacity:1;stroke:#ffffff;stroke-width:1.80999994;stroke-miterlimit:4;stroke-dasharray:none;stroke-opacity:1;paint-order:stroke markers fill;"
       xml:space="preserve"><tspan
         style="font-style:normal;font-variant:normal;font-weight:normal;font-stretch:normal;font-size:12.40760517px;font-family:Tube;-inkscape-font-specification:'Tube, Normal';font-variant-ligatures:normal;font-variant-caps:normal;font-variant-numeric:normal;font-feature-settings:normal;text-align:start;writing-mode:lr-tb;text-anchor:start;fill:#020713;fill-opacity:1;stroke:#ffffff;stroke-width:1.80999994;stroke-miterlimit:4;stroke-dasharray:none;stroke-opacity:1;paint-order:stroke markers fill;"
         y="274.73721"
         x="166.78258"
         id="tspan890"
         sodipodi:role="line">Speculative Technologies</tspan></text>
    <text
       xml:space="preserve"
       style="font-style:normal;font-variant:normal;font-weight:normal;font-stretch:normal;font-size:8.75806808px;line-height:1.25;font-family:'URW Gothic L';-inkscape-font-specification:'URW Gothic L';letter-spacing:0px;word-spacing:0px;fill:#000000;fill-opacity:1;stroke:none;stroke-width:0.2189517"
       x="185.91147"
       y="255.83336"
       id="text896"><tspan
         sodipodi:role="line"
         id="tspan894"
         x="185.91147"
         y="255.83336"
         style="font-style:oblique;font-variant:normal;font-weight:normal;font-stretch:normal;font-size:5.64444447px;font-family:'URW Gothic L';-inkscape-font-specification:'URW Gothic L Oblique';stroke-width:0.2189517">a COVID-19 era enterprise of</tspan></text>
    <flowRoot
       xml:space="preserve"
       id="flowRoot898"
       style="font-style:normal;font-variant:normal;font-weight:normal;font-stretch:normal;font-size:13.33333302px;line-height:1.25;font-family:'URW Gothic L';-inkscape-font-specification:'URW Gothic L, Normal';font-variant-ligatures:normal;font-variant-caps:normal;font-variant-numeric:normal;font-feature-settings:normal;text-align:center;letter-spacing:0px;word-spacing:0px;writing-mode:lr-tb;text-anchor:middle;fill:#000000;fill-opacity:1;stroke:none"
       transform="matrix(0.26458333,0,0,0.26458333,-120.61751,78.112212)"><flowRegion
         id="flowRegion900"
         style="text-align:center;text-anchor:middle"><rect
           id="rect902"
           width="253.54829"
           height="222.23357"
           x="627.30475"
           y="280.61914"
           style="text-align:center;text-anchor:middle" /></flowRegion><flowPara
         id="flowPara904"
         style="font-style:normal;font-variant:normal;font-weight:normal;font-stretch:normal;font-size:18.66666603px;font-family:'URW Gothic L';-inkscape-font-specification:'URW Gothic L, Normal';font-variant-ligatures:normal;font-variant-caps:normal;font-variant-numeric:normal;font-feature-settings:normal;text-align:center;writing-mode:lr-tb;text-anchor:middle">F.J. Bergmann</flowPara><flowPara
         id="flowPara914"
         style="font-style:normal;font-variant:normal;font-weight:normal;font-stretch:normal;font-size:18.66666603px;font-family:'URW Gothic L';-inkscape-font-specification:'URW Gothic L, Normal';font-variant-ligatures:normal;font-variant-caps:normal;font-variant-numeric:normal;font-feature-settings:normal;text-align:center;writing-mode:lr-tb;text-anchor:middle">Andy Dibble</flowPara><flowPara
         id="flowPara906"
         style="font-style:normal;font-variant:normal;font-weight:normal;font-stretch:normal;font-size:18.66666603px;font-family:'URW Gothic L';-inkscape-font-specification:'URW Gothic L, Normal';font-variant-ligatures:normal;font-variant-caps:normal;font-variant-numeric:normal;font-feature-settings:normal;text-align:center;writing-mode:lr-tb;text-anchor:middle">Dan Fitch</flowPara><flowPara
         id="flowPara908"
         style="font-style:normal;font-variant:normal;font-weight:normal;font-stretch:normal;font-size:18.66666603px;font-family:'URW Gothic L';-inkscape-font-specification:'URW Gothic L, Normal';font-variant-ligatures:normal;font-variant-caps:normal;font-variant-numeric:normal;font-feature-settings:normal;text-align:center;writing-mode:lr-tb;text-anchor:middle">Julie Fitzpatrick</flowPara><flowPara
         id="flowPara910"
         style="font-style:normal;font-variant:normal;font-weight:normal;font-stretch:normal;font-size:18.66666603px;font-family:'URW Gothic L';-inkscape-font-specification:'URW Gothic L, Normal';font-variant-ligatures:normal;font-variant-caps:normal;font-variant-numeric:normal;font-feature-settings:normal;text-align:center;writing-mode:lr-tb;text-anchor:middle">Jesse Giallombardo</flowPara><flowPara
         id="flowPara916"
         style="font-style:normal;font-variant:normal;font-weight:normal;font-stretch:normal;font-size:18.66666603px;font-family:'URW Gothic L';-inkscape-font-specification:'URW Gothic L, Normal';font-variant-ligatures:normal;font-variant-caps:normal;font-variant-numeric:normal;font-feature-settings:normal;text-align:center;writing-mode:lr-tb;text-anchor:middle">Bhim Nimgade</flowPara><flowPara
         id="flowPara912"
         style="font-style:normal;font-variant:normal;font-weight:normal;font-stretch:normal;font-size:18.66666603px;font-family:'URW Gothic L';-inkscape-font-specification:'URW Gothic L, Normal';font-variant-ligatures:normal;font-variant-caps:normal;font-variant-numeric:normal;font-feature-settings:normal;text-align:center;writing-mode:lr-tb;text-anchor:middle" /></flowRoot>    <flowRoot
       transform="matrix(0.22844807,0,0,0.22844807,-117.78187,118.76831)"
       style="font-style:normal;font-variant:normal;font-weight:normal;font-stretch:normal;font-size:18.5308342px;line-height:1.25;font-family:sans-serif;-inkscape-font-specification:'sans-serif, Normal';font-variant-ligatures:normal;font-variant-caps:normal;font-variant-numeric:normal;font-feature-settings:normal;text-align:center;letter-spacing:0px;word-spacing:0px;writing-mode:lr-tb;text-anchor:middle;fill:#000000;fill-opacity:1;stroke:none"
       id="flowRoot869"
       xml:space="preserve"><flowRegion
         style="font-style:normal;font-variant:normal;font-weight:normal;font-stretch:normal;font-size:18.5308342px;line-height:50%;font-family:sans-serif;-inkscape-font-specification:'sans-serif, Normal';font-variant-ligatures:normal;font-variant-caps:normal;font-variant-numeric:normal;font-feature-settings:normal;text-align:center;writing-mode:lr-tb;text-anchor:middle"
         id="flowRegion865"><rect
           style="font-style:normal;font-variant:normal;font-weight:normal;font-stretch:normal;font-size:18.5308342px;line-height:50%;font-family:sans-serif;-inkscape-font-specification:'sans-serif, Normal';font-variant-ligatures:normal;font-variant-caps:normal;font-variant-numeric:normal;font-feature-settings:normal;text-align:center;writing-mode:lr-tb;text-anchor:middle"
           y="80.608948"
           x="551.54327"
           height="244.45689"
           width="495.98499"
           id="rect863" /></flowRegion><flowPara
         style="font-style:normal;font-variant:normal;font-weight:normal;font-stretch:normal;font-size:15.44236183px;line-height:50%;font-family:'URW Gothic';-inkscape-font-specification:'URW Gothic';font-variant-ligatures:normal;font-variant-caps:normal;font-variant-numeric:normal;font-feature-settings:normal;text-align:center;writing-mode:lr-tb;text-anchor:middle"
         id="flowPara867">F. J. Bergmann</flowPara><flowPara
         style="font-style:normal;font-variant:normal;font-weight:normal;font-stretch:normal;font-size:15.44236183px;line-height:50%;font-family:'URW Gothic';-inkscape-font-specification:'URW Gothic';font-variant-ligatures:normal;font-variant-caps:normal;font-variant-numeric:normal;font-feature-settings:normal;text-align:center;writing-mode:lr-tb;text-anchor:middle"
         id="flowPara871">Andy Dibble</flowPara><flowPara
         style="font-style:normal;font-variant:normal;font-weight:normal;font-stretch:normal;font-size:15.44236183px;line-height:50%;font-family:'URW Gothic';-inkscape-font-specification:'URW Gothic';font-variant-ligatures:normal;font-variant-caps:normal;font-variant-numeric:normal;font-feature-settings:normal;text-align:center;writing-mode:lr-tb;text-anchor:middle"
         id="flowPara879">Dan Fitch</flowPara></flowRoot>    <flowRoot
       xml:space="preserve"
       id="flowRoot897"
       style="font-style:normal;font-variant:normal;font-weight:normal;font-stretch:normal;font-size:18.5308342px;line-height:1.25;font-family:sans-serif;-inkscape-font-specification:'sans-serif, Normal';font-variant-ligatures:normal;font-variant-caps:normal;font-variant-numeric:normal;font-feature-settings:normal;text-align:center;letter-spacing:0px;word-spacing:0px;writing-mode:lr-tb;text-anchor:middle;fill:#000000;fill-opacity:1;stroke:none"
       transform="matrix(0.22844807,0,0,0.22844807,-81.874132,118.76831)"><flowRegion
         id="flowRegion883"
         style="font-style:normal;font-variant:normal;font-weight:normal;font-stretch:normal;font-size:18.5308342px;line-height:50%;font-family:sans-serif;-inkscape-font-specification:'sans-serif, Normal';font-variant-ligatures:normal;font-variant-caps:normal;font-variant-numeric:normal;font-feature-settings:normal;text-align:center;writing-mode:lr-tb;text-anchor:middle"><rect
           id="rect881"
           width="495.98499"
           height="244.45689"
           x="551.54327"
           y="80.608948"
           style="font-style:normal;font-variant:normal;font-weight:normal;font-stretch:normal;font-size:18.5308342px;line-height:50%;font-family:sans-serif;-inkscape-font-specification:'sans-serif, Normal';font-variant-ligatures:normal;font-variant-caps:normal;font-variant-numeric:normal;font-feature-settings:normal;text-align:center;writing-mode:lr-tb;text-anchor:middle" /></flowRegion><flowPara
         id="flowPara891"
         style="font-style:normal;font-variant:normal;font-weight:normal;font-stretch:normal;font-size:15.44236183px;line-height:50%;font-family:'URW Gothic';-inkscape-font-specification:'URW Gothic';font-variant-ligatures:normal;font-variant-caps:normal;font-variant-numeric:normal;font-feature-settings:normal;text-align:center;writing-mode:lr-tb;text-anchor:middle">Julie Fitzpatrick</flowPara><flowPara
         id="flowPara893"
         style="font-style:normal;font-variant:normal;font-weight:normal;font-stretch:normal;font-size:15.44236183px;line-height:50%;font-family:'URW Gothic';-inkscape-font-specification:'URW Gothic';font-variant-ligatures:normal;font-variant-caps:normal;font-variant-numeric:normal;font-feature-settings:normal;text-align:center;writing-mode:lr-tb;text-anchor:middle">Jesse Giallombardo</flowPara><flowPara
         id="flowPara895"
         style="font-style:normal;font-variant:normal;font-weight:normal;font-stretch:normal;font-size:15.44236183px;line-height:50%;font-family:'URW Gothic';-inkscape-font-specification:'URW Gothic';font-variant-ligatures:normal;font-variant-caps:normal;font-variant-numeric:normal;font-feature-settings:normal;text-align:center;writing-mode:lr-tb;text-anchor:middle">Bhim Nimgade</flowPara></flowRoot>    <g
       aria-label="geographies"
       style="font-style:normal;font-weight:normal;font-size:17.98182487px;line-height:1;font-family:sans-serif;text-align:center;letter-spacing:0px;word-spacing:0px;text-anchor:middle;fill:#000000;fill-opacity:1;stroke:none;stroke-width:0.44954565"
       id="text971">
      <path
         d="m 177.85618,118.45165 q -1.47451,1.3846 -3.45251,1.3846 -2.03194,0 -3.48847,-1.45653 -1.45653,-1.45653 -1.45653,-3.48848 0,-2.03194 1.45653,-3.48847 1.45653,-1.45653 3.48847,-1.45653 1.99599,0 3.45251,1.45653 v -3.25471 h 1.4925 v 10.50139 q 0,2.04992 -1.45653,3.48847 -1.43855,1.45653 -3.48848,1.45653 h -0.44954 v -1.51048 h 0.44954 q 1.43855,0 2.44553,-1.00698 1.00698,-0.989 1.00698,-2.42754 z m -3.45251,-0.1079 q 1.43855,0 2.44553,-1.00698 1.00698,-1.00698 1.00698,-2.44553 0,-1.43854 -1.00698,-2.42754 -1.00698,-1.00698 -2.44553,-1.00698 -1.43854,0 -2.44552,1.00698 -0.989,0.989 -0.989,2.42754 0,1.43855 0.989,2.44553 1.00698,1.00698 2.44552,1.00698 z"
         style="font-style:normal;font-variant:normal;font-weight:normal;font-stretch:normal;line-height:1;font-family:'Variex Light';-inkscape-font-specification:'Variex Light, ';text-align:center;text-anchor:middle;stroke-width:0.44954565"
         id="path1239" />
      <path
         d="m 182.47469,116.09603 v 0.30569 q 0,1.43854 0.989,2.44553 1.00698,0.989 2.44553,0.989 h 0.44954 v 1.51047 h -0.44954 q -2.03195,0 -3.48848,-1.45653 -1.45653,-1.45653 -1.45653,-3.48847 v -1.51048 q 0,-2.03194 1.45653,-3.48847 1.45653,-1.45653 3.48848,-1.45653 2.04992,0 3.48847,1.45653 1.45653,1.43855 1.45653,3.48847 v 1.20479 z m 6.88704,-1.49249 q -0.14386,-1.34864 -1.13286,-2.24773 -0.97102,-0.89909 -2.31965,-0.89909 -1.34864,0 -2.31966,0.89909 -0.97102,0.89909 -1.11487,2.24773 z"
         style="font-style:normal;font-variant:normal;font-weight:normal;font-stretch:normal;line-height:1;font-family:'Variex Light';-inkscape-font-specification:'Variex Light, ';text-align:center;text-anchor:middle;stroke-width:0.44954565"
         id="path1241" />
      <path
         d="m 197.27651,109.94624 q 2.04993,0 3.48848,1.45653 1.45652,1.43855 1.45652,3.48847 0,2.03195 -1.45652,3.48848 -1.45653,1.45653 -3.48848,1.45653 -2.03194,0 -3.48847,-1.45653 -1.45653,-1.45653 -1.45653,-3.48848 0,-2.03194 1.45653,-3.48847 1.45653,-1.45653 3.48847,-1.45653 z m 0,8.39751 q 1.43855,0 2.44553,-1.00698 1.00698,-1.00698 1.00698,-2.44553 0,-1.43854 -1.00698,-2.42754 -1.00698,-1.00698 -2.44553,-1.00698 -1.43854,0 -2.44553,1.00698 -0.989,0.989 -0.989,2.42754 0,1.43855 0.989,2.44553 1.00699,1.00698 2.44553,1.00698 z"
         style="font-style:normal;font-variant:normal;font-weight:normal;font-stretch:normal;line-height:1;font-family:'Variex Light';-inkscape-font-specification:'Variex Light, ';text-align:center;text-anchor:middle;stroke-width:0.44954565"
         id="path1243" />
      <path
         d="m 212.07655,118.45165 q -1.47451,1.3846 -3.45251,1.3846 -2.03194,0 -3.48847,-1.45653 -1.45653,-1.45653 -1.45653,-3.48848 0,-2.03194 1.45653,-3.48847 1.45653,-1.45653 3.48847,-1.45653 1.99598,0 3.45251,1.45653 v -3.25471 h 1.49249 v 10.50139 q 0,2.04992 -1.45652,3.48847 -1.43855,1.45653 -3.48848,1.45653 h -0.44954 v -1.51048 h 0.44954 q 1.43855,0 2.44553,-1.00698 1.00698,-0.989 1.00698,-2.42754 z m -3.45251,-0.1079 q 1.43855,0 2.44553,-1.00698 1.00698,-1.00698 1.00698,-2.44553 0,-1.43854 -1.00698,-2.42754 -1.00698,-1.00698 -2.44553,-1.00698 -1.43854,0 -2.44553,1.00698 -0.989,0.989 -0.989,2.42754 0,1.43855 0.989,2.44553 1.00699,1.00698 2.44553,1.00698 z"
         style="font-style:normal;font-variant:normal;font-weight:normal;font-stretch:normal;line-height:1;font-family:'Variex Light';-inkscape-font-specification:'Variex Light, ';text-align:center;text-anchor:middle;stroke-width:0.44954565"
         id="path1245" />
      <path
         d="m 216.42991,109.47098 h 1.49249 v 1.93179 c 0.97102,-0.97102 2.12186,-1.45653 3.45251,-1.45653 h 0.3057 v 1.51048 h -0.3057 c -0.95903,0 -1.7742,0.33566 -2.44552,1.00698 -0.67133,0.65933 -1.00699,1.46851 -1.00699,2.42754 v 5.2507 h -1.49249 z"
         style="font-style:normal;font-variant:normal;font-weight:normal;font-stretch:normal;line-height:1;font-family:'Variex Light';-inkscape-font-specification:'Variex Light, ';text-align:center;text-anchor:middle;stroke-width:0.44954565"
         id="path1247"
         inkscape:connector-curvature="0"
         sodipodi:nodetypes="cccsccscsccc" />
      <path
         d="m 234.97377,109.37649 h 1.4925 v 2.02628 c 0.97101,-0.97102 2.12185,-1.45653 3.45251,-1.45653 1.36661,0 2.52944,0.48551 3.48847,1.45653 0.97102,0.95903 1.45653,2.12186 1.45653,3.48847 0,1.35463 -0.48551,2.51746 -1.45653,3.48848 -0.97102,0.97102 -2.13384,1.45653 -3.48847,1.45653 -1.34265,0 -2.49348,-0.47952 -3.45251,-1.43855 v 4.7472 h -1.4925 z m 4.94501,2.08023 c -0.95903,0 -1.77421,0.33566 -2.44553,1.00698 -0.67132,0.65933 -1.00698,1.46851 -1.00698,2.42754 0,0.95903 0.33566,1.77421 1.00698,2.44553 0.67132,0.67132 1.4865,1.00698 2.44553,1.00698 0.95903,0 1.7742,-0.33566 2.44552,-1.00698 0.67133,-0.67132 1.00699,-1.4865 1.00699,-2.44553 0,-0.95903 -0.33566,-1.76821 -1.00699,-2.42754 -0.67132,-0.67132 -1.48649,-1.00698 -2.44552,-1.00698 z"
         style="font-style:normal;font-variant:normal;font-weight:normal;font-stretch:normal;line-height:1;font-family:'Variex Light';-inkscape-font-specification:'Variex Light, ';text-align:center;text-anchor:middle;stroke-width:0.44954565"
         id="path1251"
         inkscape:connector-curvature="0"
         sodipodi:nodetypes="cccscsssccccscssscscs" />
      <path
         d="m 248.61156,113.39875 h 6.00593 v -3.74022 h 1.49249 v 11.05037 h -1.49249 v -5.81766 h -6.00593 v 4.49475 h -1.49249 v -13.67465 h 1.49249 z"
         style="font-style:normal;font-variant:normal;font-weight:normal;font-stretch:normal;line-height:1;font-family:'Variex Light';-inkscape-font-specification:'Variex Light, ';text-align:center;text-anchor:middle;stroke-width:0.44954565"
         id="path1253"
         inkscape:connector-curvature="0"
         sodipodi:nodetypes="ccccccccccccc" />
      <path
         d="m 260.42542,109.65853 v 10.48341 h -1.49249 v -10.48341 z m -0.73725,-3.7582 q 0.41358,0 0.71927,0.32367 0.32368,0.32368 0.32368,0.73726 0,0.41358 -0.32368,0.73725 -0.30569,0.3057 -0.71927,0.3057 -0.41358,0 -0.73725,-0.3057 -0.32368,-0.32367 -0.32368,-0.73725 0,-0.41358 0.32368,-0.73726 0.32367,-0.32367 0.73725,-0.32367 z"
         style="font-style:normal;font-variant:normal;font-weight:normal;font-stretch:normal;line-height:1;font-family:'Variex Light';-inkscape-font-specification:'Variex Light, ';text-align:center;text-anchor:middle;stroke-width:0.44954565"
         id="path1255" />
      <path
         d="m 264.30569,116.09603 v 0.30569 q 0,1.43854 0.989,2.44553 1.00699,0.989 2.44553,0.989 h 0.44955 v 1.51047 h -0.44955 q -2.03194,0 -3.48847,-1.45653 -1.45653,-1.45653 -1.45653,-3.48847 v -1.51048 q 0,-2.03194 1.45653,-3.48847 1.45653,-1.45653 3.48847,-1.45653 2.04993,0 3.48848,1.45653 1.45652,1.43855 1.45652,3.48847 v 1.20479 z m 6.88704,-1.49249 q -0.14385,-1.34864 -1.13285,-2.24773 -0.97102,-0.89909 -2.31966,-0.89909 -1.34864,0 -2.31965,0.89909 -0.97102,0.89909 -1.11488,2.24773 z"
         style="font-style:normal;font-variant:normal;font-weight:normal;font-stretch:normal;line-height:1;font-family:'Variex Light';-inkscape-font-specification:'Variex Light, ';text-align:center;text-anchor:middle;stroke-width:0.44954565"
         id="path1257" />
      <path
         d="m 280.16598,107.10511 h -0.44955 q -1.43854,0 -2.44553,1.00699 -1.00698,1.00698 -1.00698,2.44552 v 8.09183 q 0,2.04992 -1.45653,3.48847 -1.43854,1.45653 -3.48847,1.45653 h -0.44955 v -1.51048 h 0.44955 q 1.43855,0 2.44553,-1.00698 1.00698,-0.989 1.00698,-2.42754 v -8.09183 q 0,-2.03194 1.45653,-3.48847 1.45653,-1.45653 3.48847,-1.45653 h 0.44955 z"
         style="font-style:normal;font-variant:normal;font-weight:normal;font-stretch:normal;line-height:1;font-family:'Variex Light';-inkscape-font-specification:'Variex Light, ';text-align:center;text-anchor:middle;stroke-width:0.44954565"
         id="path1259" />
    </g>
    <path
       style="color:#000000;font-style:normal;font-variant:normal;font-weight:normal;font-stretch:normal;font-size:medium;line-height:normal;font-family:sans-serif;font-variant-ligatures:normal;font-variant-position:normal;font-variant-caps:normal;font-variant-numeric:normal;font-variant-alternates:normal;font-feature-settings:normal;text-indent:0;text-align:start;text-decoration:none;text-decoration-line:none;text-decoration-style:solid;text-decoration-color:#000000;letter-spacing:normal;word-spacing:normal;text-transform:none;writing-mode:lr-tb;direction:ltr;text-orientation:mixed;dominant-baseline:auto;baseline-shift:baseline;text-anchor:start;white-space:normal;shape-padding:0;clip-rule:nonzero;display:inline;overflow:visible;visibility:visible;opacity:1;isolation:auto;mix-blend-mode:normal;color-interpolation:sRGB;color-interpolation-filters:linearRGB;solid-color:#000000;solid-opacity:1;vector-effect:none;fill:#fafafa;fill-opacity:1;fill-rule:nonzero;stroke:none;stroke-width:5.70708656;stroke-linecap:butt;stroke-linejoin:miter;stroke-miterlimit:4;stroke-dasharray:none;stroke-dashoffset:0;stroke-opacity:1;color-rendering:auto;image-rendering:auto;shape-rendering:auto;text-rendering:auto;enable-background:accumulate"
       d="m 643.46484,250.9082 v 5.70508 h 12.58594 v -5.70508 h -5.00746 l -2.14657,-1.13642 -2.02031,1.13642 z m 30.99024,0 c -0.35297,0.40555 -0.71059,0.8088 -1.10156,1.19532 l -0.008,0.008 c -1.99064,2.01358 -4.24168,3.51232 -6.70508,4.50195 h 118.74024 v -5.70508 l -4.95189,0.0352 -3.79556,1.17944 -1.74865,-4.54272 -1.60775,4.74928 -2.15154,-1.85184 -2.40514,1.48729 -4.91862,-0.21688 -2.27321,-1.03615 -1.88496,0.85799 -1.77309,0.0456 -0.68715,-4.3275 -1.46482,0.0767 -0.49468,4.31885 -1.51757,0.039 -7.58112,-2.45812 -3.14061,1.08503 -4.06959,-1.53744 -3.27088,3.56556 -3.78811,0.37898 -1.00651,-1.89614 -0.76319,1.66698 -1.76601,-4.80585 -1.63299,3.28776 -1.65401,-1.5709 -1.00537,2.33895 -5.4311,-1.02821 -4.79863,-2.37945 -9.84512,3.59615 -8.21042,-1.94137 -6.18718,2.0203 -2.51528,-5.73772 -3.32511,0.52889 -1.88992,-1.83299 -1.48733,5.27405 z m 129.33789,0 c -0.35284,0.40555 -0.71059,0.8088 -1.10156,1.19532 l -0.008,0.008 c -1.99102,2.01398 -4.24109,3.51233 -6.70507,4.50195 h 90.69726 v -0.28711 -5.41797 l -3.29719,-1e-5 -2.27284,-1.01015 -2.27284,1.01014 -13.11843,1.33929 -6.16072,-1.33929 v -2.80357 h -2.72321 v 1.41964 h -0.80357 v -4.61607 h -1.33929 v 6 h -0.84821 v -2 h -2.54465 v 4 h -1.20535 v -6 h -2.85715 V 249.5 l -1.20535,-0.50234 v 1.91071 h -1.19407 l -2.60697,1.71574 -1.66385,-3.40073 -1.21905,2.58481 -0.91704,-3.89853 -1.88714,2.89788 -3.79717,0.94912 -3.27999,-0.21706 -3.03046,-3.15673 -2.14657,3.6618 -3.78808,-1.13643 -2.3339,-2.97166 -2.59059,1.70896 -6.56599,1.26267 z m 91.35742,0 v 5.41797 0.28711 h 127.18941 v -5.70508 l -14.5627,0.27525 -2.048,-1.07179 -2.2352,1.88944 -1.0765,-1.75279 -0.6463,1.30377 -0.7884,-1.81289 -0.5338,1.36122 -3.91817,0.58613 -2.69179,-1.9474 -2.1451,1.55624 -7.43156,2.91431 -2.38063,0.0277 -6.34742,-3.56113 -2.76532,0.7312 -1.16051,1.11547 -2.09946,0.43875 -2.81056,-2.05357 -3.43877,-0.74119 -1.60334,0.30219 -3.66567,2.17552 -0.80314,-0.46672 -0.84819,-1.29514 -1.11624,1.95691 -0.75804,-0.37415 -1.34439,0.93974 -1.42253,-0.51332 -0.80692,0.67159 -0.80357,-1.95389 -0.80314,0.91258 -1.38467,0.0306 -0.7558,-0.6986 -2.10073,1.63411 -0.98096,-1.08887 -0.30951,-1.92505 -0.12008,1.42901 -0.68562,1.68763 -0.75742,-0.91389 -0.49927,-1.20864 -0.62024,-0.37576 -0.89139,1.62878 -2.36527,0.0522 -1.42933,-0.47371 -0.22207,-0.84022 -0.67063,0.83204 -1.25043,-0.0605 -2.87886,-1.09513 0.0231,-0.58001 -0.6637,-0.361 -0.29702,0.58432 -1.5848,-0.60286 -0.49169,1.43628 -1.42825,0.0107 -0.98311,-1.16614 -0.48953,-0.86027 -1.25067,-0.47487 0.35216,2.05749 -1.18707,0.35933 -0.93117,-2.46412 -1.40198,0.47467 0.83128,2.44407 -3.02036,0.91427 v -2 h -2.14286 v -2.80357 h -1.78571 v 5.4375 h -0.53571 v -6.63393 h -1.02679 v 6 l -1.60714,-2 v -1.77679 h -2.81251 v -0.84821 h -1.875 v 1.86607 h -0.80357 v -4.70536 h -1.65178 v 6.44643 h -1.25 v -4.98214 h -4.375 v 4 z"
       transform="matrix(0.26458333,0,0,0.26458333,0,55.7)"
       id="path1092"
       inkscape:connector-curvature="0"
       sodipodi:nodetypes="ccccccccccccccccccccccccccccccccccccccccccccccccccccccccccccccccccccccccccccccccccccccccccccccccccccccccccccccccccccccccccccccccccccccccccccccccccccccccccccccccccccccccccccccccccccccc" />
    <circle
       style="fill:#fafafa;fill-opacity:1;stroke:none;stroke-width:0.75;stroke-miterlimit:4;stroke-dasharray:none;stroke-opacity:1;paint-order:stroke markers fill"
       id="path1123"
       cx="200.15147"
       cy="120.95296"
       r="0.46772167" />
    <circle
       r="0.34243909"
       cy="122.04709"
       cx="202.11423"
       id="circle1125"
       style="fill:#fafafa;fill-opacity:1;stroke:none;stroke-width:0.54910713;stroke-miterlimit:4;stroke-dasharray:none;stroke-opacity:1;paint-order:stroke markers fill" />
    <circle
       style="fill:#fafafa;fill-opacity:1;stroke:none;stroke-width:1.125;stroke-miterlimit:4;stroke-dasharray:none;stroke-opacity:1;paint-order:stroke markers fill"
       id="circle1127"
       cx="191.14786"
       cy="121.53762"
       r="0.70158249" />
    <circle
       style="fill:#fafafa;fill-opacity:1;stroke:none;stroke-width:0.26785713;stroke-miterlimit:4;stroke-dasharray:none;stroke-opacity:1;paint-order:stroke markers fill"
       id="circle1129"
       cx="203.37541"
       cy="122.20578"
       r="0.16704346" />
    <path
       style="fill:#fafafa;fill-opacity:1;stroke:none;stroke-width:0.75;stroke-miterlimit:4;stroke-dasharray:none;stroke-opacity:1;paint-order:stroke markers fill"
       id="path1181"
       d="m 259.87237,123.32879 c 0.014,-0.13855 0.0404,-0.27462 0.0866,-0.406 0.031,-0.0811 0.0831,-0.15026 0.13493,-0.21883 0.0466,-0.0551 0.0947,-0.10888 0.14369,-0.16178 0.0522,-0.051 0.0944,-0.11039 0.13431,-0.17117 0.0359,-0.0536 0.0745,-0.1055 0.11432,-0.15625 0.0226,-0.0277 0.0493,-0.051 0.0803,-0.0687 0.32917,-0.18797 0.20438,-0.15318 0.35157,-0.19127 0.0579,-0.0129 0.11748,-0.0134 0.1765,-0.0144 0.0542,0.005 0.10337,-0.008 0.15388,-0.0252 0.023,-0.0104 0.0453,-0.0214 0.0679,-0.0325 0.008,-0.004 0.0308,-0.0148 0.0234,-0.0105 -0.0935,0.0544 -0.37353,0.21852 -0.28194,0.1609 0.1046,-0.0658 0.214,-0.12365 0.321,-0.18548 0.29667,-0.16098 -0.97179,0.5618 0.0816,-0.0437 0.0932,-0.0536 -0.18626,0.10757 -0.2796,0.16098 -0.008,0.004 0.0152,-0.009 0.0229,-0.0141 0.0419,-0.0249 0.0801,-0.0552 0.11667,-0.0873 0.0359,-0.0272 0.0605,-0.0651 0.0859,-0.10154 0.0324,-0.0498 0.0621,-0.10142 0.0895,-0.15411 0.0341,-0.0618 0.0569,-0.12872 0.0749,-0.19669 0.0157,-0.066 0.0188,-0.13401 0.0207,-0.20159 10e-4,-0.0555 5.3e-4,-0.11108 2.6e-4,-0.16663 -0.002,-0.0375 -0.0123,-0.0725 -0.0293,-0.10566 -0.0244,-0.0418 -0.0565,-0.0749 -0.10005,-0.0959 -0.0433,-0.0162 -0.09,-0.0166 -0.1356,-0.0174 -0.0455,0.0105 -0.0916,0.0166 -0.13794,0.0215 -0.039,0.0146 -0.0811,0.025 -0.11744,0.0456 -0.0113,0.009 -0.0258,0.009 -0.0382,0.0151 -0.0112,0.005 -0.0431,0.0247 -0.0323,0.0185 0.0948,-0.0549 0.38082,-0.21691 0.28514,-0.16351 -0.10749,0.06 -0.21374,0.1222 -0.32061,0.1833 0.52555,-0.31005 0.29985,-0.18178 0.19071,-0.0967 -0.0378,0.0282 -0.0713,0.0614 -0.10732,0.0917 -0.034,0.0265 -0.0685,0.0524 -0.10499,0.0755 -0.0349,0.0228 -0.0676,0.0479 -0.0967,0.0777 -0.0343,0.0308 -0.0521,0.0714 -0.0718,0.11177 -0.0157,0.0393 -0.0318,0.078 -0.0524,0.11501 -0.0213,0.0294 -0.0505,0.0525 -0.079,0.0747 -0.12851,0.0939 -0.2691,0.18367 -0.42505,0.22203 -0.0481,0.005 -0.0945,0.0162 -0.14194,0.025 -0.0475,0.008 -0.0957,0.009 -0.14378,0.0104 -0.0385,-5.3e-4 -0.0746,0.0151 -0.11269,0.02 -0.0427,0.006 -0.074,-0.0168 -0.1039,-0.0438 -0.0348,-0.029 -0.0698,-0.0571 -0.10474,-0.0858 -0.0371,-0.0354 -0.0562,-0.0825 -0.0773,-0.12812 -0.0245,-0.0491 -0.0457,-0.0984 -0.0581,-0.15208 -10e-4,-0.008 -0.003,-0.0151 -0.004,-0.0226 l 0.0208,-0.25431 0.0259,-0.24803 c 0.25317,0.10312 0.22685,0.17374 0.26471,0.33685 v 0 c 10e-4,0.007 0.002,0.0143 0.003,0.0214 0.0104,0.0517 0.0307,0.0983 0.0541,0.14535 0.019,0.0405 0.035,0.0834 0.0695,0.11388 0.0359,0.028 0.0694,0.0586 0.10527,0.0866 0.0272,0.0213 0.0525,0.0272 0.0867,0.0183 0.0381,-0.008 0.0758,-0.0179 0.11521,-0.0157 0.047,-0.002 0.0941,-0.005 0.14025,-0.015 0.0467,-0.01 0.0941,-0.0151 0.14021,-0.0274 0.0219,-0.007 0.0441,-0.0144 0.0654,-0.0231 0.006,-0.003 0.0248,-0.0122 0.0188,-0.009 -0.2466,0.1455 -0.38284,0.21759 -0.26625,0.15566 0.0282,-0.0215 0.0547,-0.0438 0.0832,-0.0647 0.027,-0.0312 0.0415,-0.071 0.055,-0.1096 0.0188,-0.0424 0.035,-0.0875 0.0675,-0.1216 0.0274,-0.0323 0.0568,-0.0632 0.094,-0.0843 0.033,-0.0272 0.0723,-0.047 0.10592,-0.0735 0.0369,-0.03 0.0722,-0.0611 0.10676,-0.0939 0.13694,-0.093 0.22792,-0.20397 0.41193,-0.2539 -0.0946,0.0547 -0.37983,0.21615 -0.2838,0.16402 0.1341,-0.0728 0.2525,-0.15857 0.39094,-0.21582 0.0407,-0.0145 0.0807,-0.0327 0.12422,-0.0367 0.047,-0.006 0.0934,-0.0168 0.14083,-0.0172 0.0498,0.003 0.0999,0.007 0.14487,0.031 0.0464,0.0283 0.0836,0.0663 0.11121,0.1134 0.02,0.038 0.0324,0.0778 0.0369,0.12064 1.3e-4,0.0559 2.6e-4,0.11185 -5.3e-4,0.16777 -10e-4,0.0697 -0.004,0.13989 -0.0176,0.20849 -0.0157,0.0702 -0.0378,0.14012 -0.0715,0.20376 -0.0258,0.0542 -0.0557,0.1064 -0.0873,0.15734 -0.0236,0.0395 -0.0501,0.0779 -0.0814,0.11162 -0.039,0.0296 -0.0723,0.067 -0.11574,0.0907 -0.1228,0.087 -0.0274,0.0204 -0.34565,0.20268 -0.0937,0.0536 0.37438,-0.21505 0.28025,-0.16222 -0.12266,0.0688 -0.23842,0.14207 -0.36157,0.20645 0.094,-0.0543 0.37769,-0.21441 0.28204,-0.163 -0.13631,0.0733 -0.26769,0.17295 -0.41715,0.22437 -0.0522,0.0151 -0.10524,0.0186 -0.1595,0.0172 -0.0573,0.002 -0.11546,0.004 -0.17013,0.0231 -0.12352,0.0538 -0.0281,0.0133 0.25531,-0.15161 0.007,-0.004 -0.0146,0.008 -0.0221,0.0123 -0.0218,0.0116 -0.0237,0.0102 -0.0431,0.0266 -0.007,0.006 -0.0131,0.0128 -0.0197,0.0192 -0.0438,0.0463 -0.0776,0.10189 -0.11668,0.1522 -0.0401,0.0616 -0.0791,0.12486 -0.13175,0.17674 -0.0494,0.0521 -0.0964,0.10637 -0.14542,0.15874 -0.0518,0.0665 -0.10484,0.13289 -0.14061,0.20987 -0.0498,0.12777 -0.0789,0.26136 -0.0892,0.39829 l -0.31454,0.15537 z"
       inkscape:connector-curvature="0"
       sodipodi:nodetypes="ccccccccccccccccccccccccccccccccccccccccccccccccccccccccccccccccccccccccccccccccccccccccccccccccccccc" />
    <path
       style="fill:#fafafa;fill-opacity:1;stroke:none;stroke-width:0.75;stroke-miterlimit:4;stroke-dasharray:none;stroke-opacity:1;paint-order:stroke markers fill"
       id="path1183"
       d="m 260.32636,123.12684 c -0.0414,-0.10625 -0.0812,-0.21364 -0.0945,-0.32746 -0.004,-0.0519 0.001,-0.10255 0.0193,-0.15131 0.0181,-0.0403 0.0367,-0.0804 0.0665,-0.11336 0.0231,-0.0191 0.0417,-0.0486 0.0679,-0.0632 0.0546,0.14408 0.002,0.0474 0.30336,-0.11935 0.005,-0.003 -0.0105,0.006 -0.0155,0.01 -0.0157,0.0111 -0.0297,0.0226 -0.0465,0.0324 -0.046,0.0254 -0.0855,0.0601 -0.12221,0.0972 -0.0297,0.0291 -0.0541,0.0634 -0.0736,0.10003 -0.0214,0.0328 -0.0324,0.0707 -0.0438,0.10778 -0.009,0.0406 -0.0217,0.0807 -0.0379,0.11913 -0.0133,0.0398 -0.031,0.0777 -0.0408,0.11856 -0.002,0.0203 -0.0162,0.0525 0.005,0.0668 0.10121,-0.13099 -0.38183,0.23317 -0.23804,0.11642 0.008,-0.006 0.0155,-0.0132 0.0232,-0.0197 0.0502,-0.041 0.0903,-0.0905 0.12545,-0.14449 0.0297,-0.0466 0.0542,-0.096 0.0765,-0.1464 0.0183,-0.0409 0.036,-0.0816 0.0598,-0.11973 0.0191,-0.0294 0.04,-0.0576 0.0599,-0.0864 0.0142,-0.0254 0.0278,-0.0509 0.0419,-0.0763 0.0168,-0.0246 0.0336,-0.0493 0.0495,-0.0745 0.007,-0.0211 0.0222,-0.0376 0.0312,-0.0571 0.0834,-0.10072 0.30932,-0.19089 0.35454,-0.2193 0.0926,-0.0582 -0.18935,0.10967 -0.28441,0.16384 -0.006,0.003 0.0113,-0.008 0.017,-0.0115 0.11183,-0.079 0.2155,-0.13067 0.34882,-0.20746 0.0153,-0.009 0.0328,-0.0107 0.0498,-0.0129 0.17109,-0.0786 -0.15274,0.11659 -0.27408,0.16207 -0.0341,0.01 -0.0682,0.0159 -0.0992,-0.004 -0.0154,2.6e-4 -0.0168,-0.0408 -0.0286,-0.0433 -0.003,-7.9e-4 -0.003,0.006 -0.004,0.01 -0.003,0.0144 7.9e-4,0.009 -0.0114,0.0169 0.0937,-0.0534 0.18659,-0.10803 0.281,-0.16007 0.0292,-0.0161 -0.0308,0.0257 -0.0457,0.0418 -0.0208,0.0286 -0.0421,0.0572 -0.0582,0.0887 -2.3e-4,-5.3e-4 -0.0105,0.0282 -0.0109,0.0274 -0.003,-0.006 -0.007,-0.0133 -0.007,-0.0204 -5.2e-4,-0.005 0.007,-0.0164 0.003,-0.0142 -0.0947,0.05 -0.18578,0.1065 -0.27868,0.15976 0.11328,-0.0812 0.23955,-0.1395 0.3614,-0.20844 0.0178,-0.0101 0.0328,-0.0177 0.0524,-0.0238 -0.0238,0.0187 0.10417,-0.0546 0.0726,-0.0363 -0.32104,0.18562 -0.3746,0.21883 -0.26411,0.15088 0.12,-0.0803 0.0613,-0.0417 0.34288,-0.19853 0.0102,-0.006 0.0323,-0.009 0.0433,-0.0135 0.0106,-0.005 0.02,-0.0116 0.0304,-0.0164 0.0323,-0.0151 0.0708,-0.006 0.10246,-0.0204 -0.0105,0.006 0.0361,-0.0147 0.0277,-0.01 -0.095,0.0544 -0.37755,0.22159 -0.28629,0.16107 0.10213,-0.0677 0.22071,-0.14964 0.34486,-0.19217 -0.73962,0.42105 0.0249,-0.0154 0.0377,-0.0225 0.0951,-0.0529 -0.37758,0.21694 -0.2834,0.16232 0.11403,-0.0661 0.21645,-0.17353 0.34736,-0.18904 0.0298,-0.001 0.0567,-0.0174 0.0835,-0.0295 0.16578,-0.0785 -0.42351,0.25396 -0.21684,0.11775 0.0269,-0.0184 0.0504,-0.0409 0.0752,-0.0619 0.0208,-0.0193 0.0365,-0.0425 0.0502,-0.0671 0.006,-0.0442 0.0423,-0.0321 0.0238,3e-5 -0.0357,-0.005 -0.0416,-0.0355 -0.0416,-0.0669 -0.002,-0.0398 0.009,-0.0778 0.017,-0.1162 0.005,-0.0395 0.0196,-0.0768 0.0272,-0.11578 0.007,-0.0343 0.0201,-0.0666 0.0263,-0.10108 0.005,-0.0301 0.0165,-0.0586 0.0233,-0.0884 0.005,-0.0307 0.005,-0.0619 0.006,-0.093 -2.7e-4,-0.13495 -0.0183,-0.0347 0.32201,-0.16201 0.005,-0.002 0.0126,0.0421 0.0134,0.0468 -0.29358,0.13792 -0.32235,0.24582 -0.3544,0.0333 -5.3e-4,-0.0369 -0.0105,-0.072 -0.0177,-0.10784 -0.008,-0.0438 -0.009,-0.0884 -0.01,-0.13278 -0.002,-0.0466 0.002,-0.0934 -0.002,-0.13989 -0.004,-0.034 -0.0104,-0.0662 -0.0342,-0.0917 -0.003,-0.001 -0.006,-0.003 -0.009,-0.004 0,0 0.29828,-0.18938 0.29828,-0.18938 v 0 c 0.004,0.004 0.009,0.008 0.013,0.0113 0.0263,0.0322 0.0396,0.0688 0.0438,0.11033 0.007,0.0473 0.002,0.0953 0.004,0.14297 5.3e-4,0.0425 0.001,0.0852 0.007,0.12729 0.007,0.0366 0.0194,0.072 0.0186,0.10962 0.0235,0.19975 0.12508,0.0723 -0.27795,0.28185 0.0176,0.004 -0.004,-0.0217 10e-6,-0.0246 0.32807,-0.23378 0.30012,-0.30674 0.29956,-0.17115 -2.2e-4,0.0327 -1.7e-4,0.0655 -0.003,0.0981 -0.004,0.0302 -0.0123,0.0595 -0.0241,0.0875 -0.004,0.0354 -0.012,0.0692 -0.0261,0.10199 -0.006,0.0401 -0.0186,0.0775 -0.0267,0.11674 -0.007,0.0372 -0.0208,0.0725 -0.0193,0.11068 -5.3e-4,0.008 0.002,0.0163 -0.002,0.0225 -0.002,0.002 -0.007,-0.005 -0.005,-0.007 0.003,-0.004 0.012,0.003 0.014,-0.005 0.0345,0.008 0.0384,0.0447 0.0163,0.0668 -0.008,0.0301 -0.025,0.0566 -0.0448,0.0802 -0.0204,0.0256 -0.0473,0.047 -0.0734,0.0663 -0.028,0.026 0.003,-0.001 -0.0288,0.0205 -0.11501,0.077 -0.23092,0.15734 -0.35877,0.21239 -0.0278,0.0123 -0.0576,0.0185 -0.0871,0.0253 -0.008,0.004 -0.0318,0.0164 -0.0241,0.0119 0.0951,-0.0555 0.38089,-0.22102 0.28559,-0.16591 -1.06545,0.61623 0.71515,-0.41059 -0.3607,0.20664 -0.008,0.004 -0.0314,0.0163 -0.0238,0.0119 0.0951,-0.0554 0.38482,-0.21315 0.28561,-0.16554 -0.15113,0.0725 -0.21808,0.15824 -0.35058,0.19094 -0.034,0.004 -0.068,0.009 -0.0985,0.0254 -0.0169,0.008 -0.0345,0.0131 -0.0515,0.0206 -0.007,0.003 -0.0275,0.0141 -0.0208,0.0102 0.0932,-0.0549 0.18708,-0.10874 0.28062,-0.16311 -0.007,0.004 -0.0136,0.008 -0.0204,0.0121 -0.12615,0.0956 -0.2679,0.17203 -0.41418,0.23224 -0.23393,0.11288 0.39516,-0.23365 0.19144,-0.11491 -0.10796,0.0639 -0.21414,0.13089 -0.32388,0.19167 -0.0175,0.01 -0.0377,-0.023 -0.0376,-0.0371 2e-5,-0.002 0.007,-0.0289 0.008,-0.0296 0.0109,-0.0358 0.0322,-0.0671 0.0548,-0.0966 0.0111,-0.0198 0.0228,-0.0378 0.0428,-0.0501 0.10644,-0.0655 0.21371,-0.12958 0.32095,-0.19374 0.003,-0.002 0.007,-0.004 0.0105,-0.005 0.005,-2.1e-4 0.009,0.002 0.0132,0.003 0.019,0.0112 0.027,0.0278 0.0396,0.0438 0.0317,0.002 0.0625,-0.009 0.094,-0.003 0.16951,0.0776 -0.16711,0.22015 -0.29554,0.25497 -0.0163,0.006 -0.0142,0.004 -0.0292,0.0126 -0.005,0.003 -0.0189,0.011 -0.0142,0.008 0.53182,-0.3112 0.34127,-0.22102 0.25436,-0.14219 -0.20031,0.11697 -0.64334,0.3738 -0.0522,0.0318 0.037,-0.0214 -0.0804,0.0456 -0.0385,0.0242 -0.008,0.005 -0.0324,0.0401 -0.0339,0.0513 -0.0137,0.0282 -0.0341,0.0508 -0.0478,0.079 -0.0208,0.0205 -0.0263,0.0483 -0.0444,0.0703 -0.0121,0.0349 -0.0403,0.06 -0.0584,0.0914 -0.0268,0.0354 -0.0467,0.0735 -0.062,0.1151 -0.0267,0.0488 -0.0435,0.10335 -0.0757,0.14953 -0.0327,0.0573 -0.0709,0.11087 -0.12129,0.15411 -0.11494,0.10653 -0.19088,0.13117 -0.37371,0.23463 -0.007,0.004 -0.0214,-5.3e-4 -0.0273,-0.004 -0.004,-0.002 -0.008,-0.006 -0.0114,-0.009 -0.0254,-0.0287 -0.0293,-0.0611 -0.021,-0.0982 0.007,-0.0436 0.0232,-0.0828 0.0383,-0.12383 0.0134,-0.0385 0.0329,-0.0754 0.0394,-0.11615 0.01,-0.0397 0.0223,-0.0795 0.0395,-0.11652 0.0245,-0.0352 0.0399,-0.0771 0.0707,-0.10839 0.0384,-0.0362 0.0728,-0.0771 0.11854,-0.10498 0.016,-0.009 0.0339,-0.0158 0.0482,-0.0277 0.10826,-0.0901 0.28312,-0.31015 0.36619,-0.15799 -0.01,0.0166 0.003,-0.002 -0.0155,0.0143 -0.0179,0.016 -0.0333,0.0351 -0.0537,0.0485 -0.004,0.005 -0.009,0.01 -0.0133,0.0147 -0.005,0.004 -0.0107,0.008 -0.0151,0.0126 -0.0198,0.0212 -0.0281,0.0515 -0.0425,0.0761 -0.0236,0.0421 -0.0293,0.0875 -0.0284,0.13556 0.007,0.1113 0.0473,0.21644 0.0891,0.31873 0,0 -0.3063,0.17105 -0.3063,0.17105 z"
       inkscape:connector-curvature="0" />
    <path
       style="fill:#ffffff;fill-opacity:1;stroke:none;stroke-width:2.83464575;stroke-miterlimit:4;stroke-dasharray:none;stroke-opacity:1;paint-order:stroke markers fill"
       d="m 643.46797,116 v 6.56641 H 698.8457 V 116 Z m 62.10039,0 5.44336,6.56641 h 70.66016 c 4.80007,-3.45859 10.35368,-5.22657 16.52343,-5.22657 h 3.59571 v 5.22657 h 8.85937 V 116 Z m 122.33594,0 v 6.56641 h 55.58008 v -1.62696 -1.45117 h 17.2539 v 3.07813 h 6.02344 V 116 Z m 96.10937,0 v 6.56641 h 42.88477 V 116 Z m 60.13867,0 v 6.56641 H 997.627 V 116 Z"
       transform="matrix(0.26458333,0,0,0.26458333,0,55.7)"
       id="rect1203"
       inkscape:connector-curvature="0"
       sodipodi:nodetypes="ccccccccsccccccccccccccccccccccccc" />
    <text
       xml:space="preserve"
       style="font-style:normal;font-variant:normal;font-weight:normal;font-stretch:normal;font-size:16.650877px;line-height:1.25;font-family:'Variex Light';-inkscape-font-specification:'Variex Light, ';text-align:center;letter-spacing:0px;word-spacing:0px;text-anchor:middle;fill:#000000;fill-opacity:1;stroke:none;stroke-width:0.4162719"
       x="227.11284"
       y="118.2156"
       id="text1268"><tspan
         sodipodi:role="line"
         id="tspan1266"
         x="227.11284"
         y="118.2156"
         style="font-style:normal;font-variant:normal;font-weight:normal;font-stretch:normal;font-family:'Variex Light';-inkscape-font-specification:'Variex Light, ';stroke-width:0.4162719">A</tspan></text>
  </g>
</svg>
